<?xml version="1.0" standalone="no"?>
<!DOCTYPE svg PUBLIC "-//W3C//DTD SVG 20010904//EN"
 "http://www.w3.org/TR/2001/REC-SVG-20010904/DTD/svg10.dtd">
<svg version="1.0" xmlns="http://www.w3.org/2000/svg"
 width="20.000000pt" height="20.000000pt" viewBox="0 0 20.000000 20.000000"
 preserveAspectRatio="xMidYMid meet">

<g transform="translate(0.000000,20.000000) scale(0.100000,-0.100000)"
fill="#000000" stroke="none">
<path d="M90 190 c-41 -10 -80 -51 -80 -84 0 -13 9 -35 20 -49 11 -14 19 -29
18 -34 -2 -4 2 -8 7 -8 6 0 9 4 7 8 -1 4 5 22 14 39 13 24 13 32 3 39 -16 10
34 89 56 89 21 0 19 -17 -6 -48 -19 -24 -19 -27 -4 -30 14 -3 10 -12 -21 -43
-21 -21 -36 -40 -33 -42 2 -2 24 -7 49 -10 l46 -6 12 51 c10 43 9 56 -3 81 -8
16 -13 33 -10 37 3 4 -2 11 -11 14 -18 7 -17 7 -64 -4z m0 -20 c0 -5 -7 -10
-16 -10 -8 0 -12 5 -9 10 3 6 10 10 16 10 5 0 9 -4 9 -10z"/>
</g>
</svg>
